<svg width="24" height="27" viewBox="0 0 24 27" fill="none" xmlns="http://www.w3.org/2000/svg">
<path d="M3 22.4371L3.13542 21.5003C3.30957 20.2954 4.00741 19.2197 5.12892 18.7463C6.43401 18.1953 8.34683 17.5806 10.3846 17.5806C12.4224 17.5806 14.3352 18.1953 15.6403 18.7463C16.7618 19.2197 17.4597 20.2954 17.6338 21.5003L17.7692 22.4371" stroke="#00A385" stroke-width="1.6" stroke-linecap="round" stroke-linejoin="round"/>
<path d="M19.2036 11.3195V15.6349" stroke="#00A385" stroke-width="1.5" stroke-linecap="round" stroke-linejoin="round"/>
<path d="M21.2497 13.477H17.1597" stroke="#00A385" stroke-width="1.5" stroke-linecap="round" stroke-linejoin="round"/>
<path d="M10.3848 14.0485C12.6506 14.0485 14.4874 12.0719 14.4874 9.63352C14.4874 7.19517 12.6506 5.21851 10.3848 5.21851C8.11901 5.21851 6.28223 7.19517 6.28223 9.63352C6.28223 12.0719 8.11901 14.0485 10.3848 14.0485Z" stroke="#00A385" stroke-width="1.6" stroke-linecap="round" stroke-linejoin="round"/>
</svg>
