<svg width="22" height="20" viewBox="0 0 22 20" fill="none" xmlns="http://www.w3.org/2000/svg">
<path fill-rule="evenodd" clip-rule="evenodd" d="M19.7515 11.1723L18.2813 9.70213V16.2668V16.2925C18.2814 16.7432 18.2814 17.1194 18.2563 17.4267C18.2301 17.7472 18.1734 18.0482 18.0285 18.3327C17.806 18.7693 17.451 19.1243 17.0144 19.3467C16.7299 19.4917 16.4289 19.5483 16.1084 19.5745C15.8011 19.5996 15.4249 19.5996 14.9742 19.5996H14.9485H7.0614H7.03572C6.58503 19.5996 6.20884 19.5996 5.90152 19.5745C5.58099 19.5483 5.28006 19.4917 4.9955 19.3467C4.5589 19.1243 4.20394 18.7693 3.98148 18.3327C3.83649 18.0482 3.77987 17.7472 3.75368 17.4267C3.72857 17.1194 3.72858 16.7432 3.72858 16.2925L3.72859 16.2668V9.70507L2.2614 11.1723C1.84952 11.5841 1.18173 11.5841 0.769848 11.1723C0.357967 10.7604 0.357967 10.0926 0.769848 9.6807L9.30607 1.14448L9.32789 1.12266L9.32792 1.12263C9.47587 0.97462 9.62813 0.822306 9.76926 0.702497C9.92677 0.568786 10.1383 0.414843 10.4198 0.323385C10.8011 0.199497 11.2118 0.199497 11.5931 0.323385C11.8746 0.414843 12.0861 0.568786 12.2436 0.702497C12.3847 0.822309 12.537 0.974627 12.685 1.12264L12.7068 1.14448L21.243 9.6807C21.6549 10.0926 21.6549 10.7604 21.243 11.1723C20.8311 11.5841 20.1634 11.5841 19.7515 11.1723Z" fill="#FA8A34"/>
</svg>
