<svg width="21" height="21" viewBox="0 0 21 21" fill="none" xmlns="http://www.w3.org/2000/svg">
<path fill-rule="evenodd" clip-rule="evenodd" d="M2.0625 9.88067C2.0625 5.51589 5.60085 1.97754 9.96563 1.97754C14.3304 1.97754 17.8688 5.51589 17.8688 9.88067C17.8688 14.2454 14.3304 17.7838 9.96563 17.7838C5.60085 17.7838 2.0625 14.2454 2.0625 9.88067ZM9.96563 0.290039C4.66887 0.290039 0.375 4.58391 0.375 9.88067C0.375 15.1774 4.66887 19.4713 9.96563 19.4713C12.3106 19.4713 14.459 18.6297 16.1253 17.232L19.2108 20.3175C19.5403 20.647 20.0745 20.647 20.404 20.3175C20.7336 19.988 20.7336 19.4538 20.404 19.1243L17.3184 16.0387C18.7152 14.3726 19.5563 12.2249 19.5563 9.88067C19.5563 4.58391 15.2624 0.290039 9.96563 0.290039Z" fill="#606773"/>
</svg>
